<mxfile host="app.diagrams.net" modified="2023-09-14T10:39:56.963Z" agent="Mozilla/5.0 (Windows NT 10.0; Win64; x64) AppleWebKit/537.36 (KHTML, like Gecko) Chrome/114.0.0.0 YaBrowser/23.7.5.704 Yowser/2.5 Safari/537.36" etag="lpk6GFH-RZdhRGCVzscj" version="21.7.5" type="device">
  <diagram name="Страница — 1" id="qEfiiiT9q0WUqi4TZ66W">
    <mxGraphModel dx="956" dy="540" grid="1" gridSize="10" guides="1" tooltips="1" connect="1" arrows="1" fold="1" page="1" pageScale="1" pageWidth="827" pageHeight="1169" math="0" shadow="0">
      <root>
        <mxCell id="0" />
        <mxCell id="1" parent="0" />
        <mxCell id="eO7-TTs9Fb7NeL-YVznz-10" value="Клиент&lt;br&gt;" style="shape=umlActor;verticalLabelPosition=bottom;verticalAlign=top;html=1;outlineConnect=0;" vertex="1" parent="1">
          <mxGeometry x="399" y="70" width="30" height="60" as="geometry" />
        </mxCell>
        <mxCell id="eO7-TTs9Fb7NeL-YVznz-11" value="" style="endArrow=classic;html=1;rounded=0;" edge="1" parent="1" target="eO7-TTs9Fb7NeL-YVznz-12">
          <mxGeometry width="50" height="50" relative="1" as="geometry">
            <mxPoint x="440" y="110" as="sourcePoint" />
            <mxPoint x="560" y="160" as="targetPoint" />
          </mxGeometry>
        </mxCell>
        <mxCell id="eO7-TTs9Fb7NeL-YVznz-12" value="Оставить&lt;br/&gt;пожелания на сайте&amp;nbsp;" style="ellipse;whiteSpace=wrap;html=1;" vertex="1" parent="1">
          <mxGeometry x="500" y="110" width="120" height="80" as="geometry" />
        </mxCell>
        <mxCell id="eO7-TTs9Fb7NeL-YVznz-13" value="" style="endArrow=classic;html=1;rounded=0;" edge="1" parent="1" target="eO7-TTs9Fb7NeL-YVznz-14">
          <mxGeometry width="50" height="50" relative="1" as="geometry">
            <mxPoint x="440" y="150" as="sourcePoint" />
            <mxPoint x="420" y="260" as="targetPoint" />
          </mxGeometry>
        </mxCell>
        <mxCell id="eO7-TTs9Fb7NeL-YVznz-14" value="Бронирование&lt;br/&gt;тура&amp;nbsp;" style="ellipse;whiteSpace=wrap;html=1;" vertex="1" parent="1">
          <mxGeometry x="440" y="210" width="120" height="80" as="geometry" />
        </mxCell>
        <mxCell id="eO7-TTs9Fb7NeL-YVznz-15" value="" style="endArrow=classic;html=1;rounded=0;" edge="1" parent="1" target="eO7-TTs9Fb7NeL-YVznz-16">
          <mxGeometry width="50" height="50" relative="1" as="geometry">
            <mxPoint x="390" y="150" as="sourcePoint" />
            <mxPoint x="330" y="200" as="targetPoint" />
          </mxGeometry>
        </mxCell>
        <mxCell id="eO7-TTs9Fb7NeL-YVznz-16" value="Просмотр&lt;br/&gt;информации о туре&amp;nbsp;" style="ellipse;whiteSpace=wrap;html=1;" vertex="1" parent="1">
          <mxGeometry x="260" y="210" width="120" height="80" as="geometry" />
        </mxCell>
        <mxCell id="eO7-TTs9Fb7NeL-YVznz-18" value="" style="endArrow=classic;html=1;rounded=0;" edge="1" parent="1" target="eO7-TTs9Fb7NeL-YVznz-19">
          <mxGeometry width="50" height="50" relative="1" as="geometry">
            <mxPoint x="380" y="110" as="sourcePoint" />
            <mxPoint x="190" y="180" as="targetPoint" />
          </mxGeometry>
        </mxCell>
        <mxCell id="eO7-TTs9Fb7NeL-YVznz-19" value="Поиск&lt;br/&gt;тура&amp;nbsp;" style="ellipse;whiteSpace=wrap;html=1;" vertex="1" parent="1">
          <mxGeometry x="200" y="110" width="120" height="80" as="geometry" />
        </mxCell>
        <mxCell id="eO7-TTs9Fb7NeL-YVznz-21" value="Туроператор" style="shape=umlActor;verticalLabelPosition=bottom;verticalAlign=top;html=1;outlineConnect=0;" vertex="1" parent="1">
          <mxGeometry x="120" y="400" width="30" height="60" as="geometry" />
        </mxCell>
        <mxCell id="eO7-TTs9Fb7NeL-YVznz-22" value="" style="endArrow=classic;html=1;rounded=0;" edge="1" parent="1" target="eO7-TTs9Fb7NeL-YVznz-29">
          <mxGeometry width="50" height="50" relative="1" as="geometry">
            <mxPoint x="160" y="410" as="sourcePoint" />
            <mxPoint x="220" y="360" as="targetPoint" />
          </mxGeometry>
        </mxCell>
        <mxCell id="eO7-TTs9Fb7NeL-YVznz-23" value="" style="endArrow=classic;html=1;rounded=0;" edge="1" parent="1" target="eO7-TTs9Fb7NeL-YVznz-28">
          <mxGeometry width="50" height="50" relative="1" as="geometry">
            <mxPoint x="160" y="430" as="sourcePoint" />
            <mxPoint x="220" y="390" as="targetPoint" />
          </mxGeometry>
        </mxCell>
        <mxCell id="eO7-TTs9Fb7NeL-YVznz-24" value="" style="endArrow=classic;html=1;rounded=0;" edge="1" parent="1" target="eO7-TTs9Fb7NeL-YVznz-27">
          <mxGeometry width="50" height="50" relative="1" as="geometry">
            <mxPoint x="160" y="450" as="sourcePoint" />
            <mxPoint x="220" y="420" as="targetPoint" />
          </mxGeometry>
        </mxCell>
        <mxCell id="eO7-TTs9Fb7NeL-YVznz-27" value="Прогнозирование&lt;br/&gt;продаж&amp;nbsp;" style="ellipse;whiteSpace=wrap;html=1;" vertex="1" parent="1">
          <mxGeometry x="180" y="480" width="120" height="80" as="geometry" />
        </mxCell>
        <mxCell id="eO7-TTs9Fb7NeL-YVznz-28" value="Добавление&lt;br/&gt;тура&amp;nbsp;" style="ellipse;whiteSpace=wrap;html=1;" vertex="1" parent="1">
          <mxGeometry x="220" y="390" width="120" height="80" as="geometry" />
        </mxCell>
        <mxCell id="eO7-TTs9Fb7NeL-YVznz-29" value="Формирование&lt;br/&gt;тура" style="ellipse;whiteSpace=wrap;html=1;" vertex="1" parent="1">
          <mxGeometry x="180" y="300" width="120" height="80" as="geometry" />
        </mxCell>
        <mxCell id="eO7-TTs9Fb7NeL-YVznz-30" value="Турагент" style="shape=umlActor;verticalLabelPosition=bottom;verticalAlign=top;html=1;outlineConnect=0;" vertex="1" parent="1">
          <mxGeometry x="650" y="410" width="30" height="60" as="geometry" />
        </mxCell>
        <mxCell id="eO7-TTs9Fb7NeL-YVznz-31" value="" style="endArrow=classic;html=1;rounded=0;" edge="1" parent="1" target="eO7-TTs9Fb7NeL-YVznz-34">
          <mxGeometry width="50" height="50" relative="1" as="geometry">
            <mxPoint x="640" y="420" as="sourcePoint" />
            <mxPoint x="590" y="380" as="targetPoint" />
          </mxGeometry>
        </mxCell>
        <mxCell id="eO7-TTs9Fb7NeL-YVznz-32" value="" style="endArrow=classic;html=1;rounded=0;" edge="1" parent="1" target="eO7-TTs9Fb7NeL-YVznz-33">
          <mxGeometry width="50" height="50" relative="1" as="geometry">
            <mxPoint x="640" y="460" as="sourcePoint" />
            <mxPoint x="600" y="500" as="targetPoint" />
          </mxGeometry>
        </mxCell>
        <mxCell id="eO7-TTs9Fb7NeL-YVznz-33" value="Оформление&lt;br/&gt;договора&amp;nbsp;" style="ellipse;whiteSpace=wrap;html=1;" vertex="1" parent="1">
          <mxGeometry x="490" y="480" width="120" height="80" as="geometry" />
        </mxCell>
        <mxCell id="eO7-TTs9Fb7NeL-YVznz-34" value="Реализация&lt;br/&gt;тура&amp;nbsp;" style="ellipse;whiteSpace=wrap;html=1;" vertex="1" parent="1">
          <mxGeometry x="490" y="320" width="120" height="80" as="geometry" />
        </mxCell>
      </root>
    </mxGraphModel>
  </diagram>
</mxfile>
